<?xml version="1.0" encoding="UTF-8"?>
<svg id="Calque_2" data-name="Calque 2" xmlns="http://www.w3.org/2000/svg" viewBox="0 0 178 38.58">
  <defs>
    <style>
      .cls-1 {
        fill: #fff;
        stroke-width: 0px;
      }
    </style>
  </defs>
  <g id="Calque_1-2" data-name="Calque 1">
    <path class="cls-1" d="m27.29,13.56c-.42.08-1.25.51-1.63.85-1.54,1.36-1.6,3.8-.12,5.28.72.72,1.49,1.04,2.52,1.05.64,0,1.02-.08,1.55-.33.55-.26,1.04-.68,1.39-1.18,1.26-1.84.66-4.3-1.3-5.33-.71-.38-1.6-.5-2.41-.34Z"/>
    <g>
      <g>
        <path class="cls-1" d="m1.32.09C.83.24.46.57.17,1.11c-.15.28-.17.39-.17.89s.03.62.17.9c.21.39.53.69,1,.91l.35.17,2.86.03,2.86.03.34.19c.35.19.64.51.83.92.1.2.1,1.27.13,11.76l.03,11.54.15.3c.2.41.6.79,1.02.99.48.22,1.23.24,1.68.03.42-.19.85-.6,1.05-1.03l.18-.36.02-4.09c.01-2.85.04-4.13.09-4.18.1-.13.33-.1.48.06.07.08,1.08,1.53,2.24,3.23,1.17,1.7,2.28,3.3,2.47,3.56,1.09,1.5,2.45,2.43,4.15,2.84.43.11.92.11,5.8.11h5.34l.54-.15c2.21-.6,4.29-2.61,5.04-4.9.32-.95,3.54-16.02,3.54-16.53,0-.44-.17-1.02-.4-1.43-.36-.61-1.18-1.18-1.88-1.32-.22-.04-3.2-.06-8.33-.06-8.49,0-8.68,0-9.54.31-.5.17-1.11.5-1.56.81-.21.15-2,1.91-3.98,3.9-2.87,2.91-3.62,3.63-3.75,3.63-.09,0-.18-.04-.2-.1s-.04-2.14-.04-4.63c0-2.79-.03-4.73-.07-5.06-.22-1.77-1.18-3.17-2.64-3.88C9,.02,8.74,0,4.93,0,2.33,0,1.53.02,1.32.09Zm36.21,9.54c.24.17.46.63.46.93,0,.13-.18,1.09-.41,2.14-2,9.22-2.3,10.54-2.42,10.88-.31.87-.99,1.63-1.82,2.03-.29.14-.68.29-.86.32-.22.04-1.77.07-4.61.07-4.75,0-4.63,0-5.46-.43-.24-.13-.6-.39-.8-.58-.31-.31-1.92-2.6-5.06-7.21-.34-.5-.38-.83-.17-1.16.07-.11,1.55-1.63,3.29-3.38,2.7-2.72,3.22-3.22,3.55-3.39.79-.4.45-.38,7.6-.37,6.48.01,6.53.01,6.71.15Z"/>
        <path class="cls-1" d="m10.11,31.38c-1.73.35-3,2.04-2.87,3.83.08,1.15.7,2.2,1.66,2.81,1.01.65,2.41.73,3.54.21.69-.32,1.41-1.09,1.73-1.85.13-.32.29-1.12.29-1.46,0-.91-.43-1.89-1.11-2.56-.86-.85-2.09-1.22-3.25-.99Z"/>
      </g>
      <g>
        <path class="cls-1" d="m47.97,10.68h3.15v7.03l5.33-7.03h3.15l-8.49,11.2v5.77h-3.15V10.68Zm4.49,10.64l2.01-2.64,5.6,8.97h-3.66l-3.95-6.33Z"/>
        <path class="cls-1" d="m60.55,10.68h10.91v2.91h-7.76v11.15h7.76v2.91h-10.91V10.68Zm3.88,9.7v-2.67h6.06v2.67h-6.06Z"/>
        <path class="cls-1" d="m84.55,13.25l-2.55,1.92c-1.62-2.08-6.74-2.23-6.74.56,0,3.01,9.31.8,9.31,6.74,0,6.42-9.38,6.96-12.63,2.62l2.55-1.94c1.5,1.96,6.98,2.55,6.98-.36,0-3.56-9.36-.68-9.36-6.98s9.26-6.72,12.44-2.55Z"/>
        <path class="cls-1" d="m85.3,10.68h3.15v16.97h-3.15V10.68Z"/>
        <path class="cls-1" d="m106.63,27.65h-3.15v-10.69c0-4.49-4.85-4.49-4.85,0v10.69h-3.15v-10.98c0-8.32,11.15-8.39,11.15,0v10.98Zm-1.04-16.03c3.27-2.64,9.04-.99,9.04,5.04v10.98h-3.15v-10.69c0-3.59-3.1-4.29-4.32-2.18-.29-1.29-.65-1.99-1.58-3.15Z"/>
        <path class="cls-1" d="m128.33,27.65h-3.15l-.97-3.27h-4.97l-.97,3.27h-3.15l4.66-15.86,1.58,5.36-1.33,4.56h3.42l-3.22-11.03h3.15l4.97,16.97Z"/>
        <path class="cls-1" d="m128.81,10.68h3.15v8h3.54c3.01,0,3.01-5.07,0-5.07h-2.81v-2.91h3.1c6.43,0,6.76,9.53,1.24,10.77l3.88,6.18h-3.66l-3.81-6.06h-1.48v6.06h-3.15V10.68Z"/>
        <path class="cls-1" d="m141.66,10.68h3.15v7.03l5.33-7.03h3.15l-8.49,11.2v5.77h-3.15V10.68Zm4.49,10.64l2.01-2.64,5.6,8.97h-3.66l-3.95-6.33Z"/>
        <path class="cls-1" d="m154.24,10.68h10.91v2.91h-7.76v11.15h7.76v2.91h-10.91V10.68Zm3.88,9.7v-2.67h6.06v2.67h-6.06Z"/>
        <path class="cls-1" d="m170.48,13.59h-4.36v-2.91h7.52v16.97h-3.15v-14.06Zm3.88,0v-2.91h3.64v2.91h-3.64Z"/>
      </g>
    </g>
  </g>
</svg>