<?xml version="1.0" encoding="UTF-8"?>
<svg id="Calque_2" data-name="Calque 2" xmlns="http://www.w3.org/2000/svg" viewBox="0 0 42.38 38.58">
  <defs>
    <style>
      .cls-1 {
        fill: #1d1d1b;
        stroke-width: 0px;
      }
    </style>
  </defs>
  <g id="Calque_1-2" data-name="Calque 1">
    <path class="cls-1" d="m27.29,13.56c-.42.08-1.25.51-1.63.85-1.54,1.36-1.6,3.8-.12,5.28.72.72,1.49,1.04,2.52,1.05.64,0,1.02-.08,1.55-.33.55-.26,1.04-.68,1.39-1.18,1.26-1.84.66-4.3-1.3-5.33-.71-.38-1.6-.5-2.41-.34Z"/>
    <g>
      <path class="cls-1" d="m1.32.09C.83.24.46.57.17,1.11c-.15.28-.17.39-.17.89s.03.62.17.9c.21.39.53.69,1,.91l.35.17,2.86.03,2.86.03.34.19c.35.19.64.51.83.92.1.2.1,1.27.13,11.76l.03,11.54.15.3c.2.41.6.79,1.02.99.48.22,1.23.24,1.68.03.42-.19.85-.6,1.05-1.03l.18-.36.02-4.09c.01-2.85.04-4.13.09-4.18.1-.13.33-.1.48.06.07.08,1.08,1.53,2.24,3.23,1.17,1.7,2.28,3.3,2.47,3.56,1.09,1.5,2.45,2.43,4.15,2.84.43.11.92.11,5.8.11h5.34l.54-.15c2.21-.6,4.29-2.61,5.04-4.9.32-.95,3.54-16.02,3.54-16.53,0-.44-.17-1.02-.4-1.43-.36-.61-1.18-1.18-1.88-1.32-.22-.04-3.2-.06-8.33-.06-8.49,0-8.68,0-9.54.31-.5.17-1.11.5-1.56.81-.21.15-2,1.91-3.98,3.9-2.87,2.91-3.62,3.63-3.75,3.63-.09,0-.18-.04-.2-.1s-.04-2.14-.04-4.63c0-2.79-.03-4.73-.07-5.06-.22-1.77-1.18-3.17-2.64-3.88C9,.02,8.74,0,4.93,0,2.33,0,1.53.02,1.32.09Zm36.21,9.54c.24.17.46.63.46.93,0,.13-.18,1.09-.41,2.14-2,9.22-2.3,10.54-2.42,10.88-.31.87-.99,1.63-1.82,2.03-.29.14-.68.29-.86.32-.22.04-1.77.07-4.61.07-4.75,0-4.63,0-5.46-.43-.24-.13-.6-.39-.8-.58-.31-.31-1.92-2.6-5.06-7.21-.34-.5-.38-.83-.17-1.16.07-.11,1.55-1.63,3.29-3.38,2.7-2.72,3.22-3.22,3.55-3.39.79-.4.45-.38,7.6-.37,6.48.01,6.53.01,6.71.15Z"/>
      <path class="cls-1" d="m10.11,31.38c-1.73.35-3,2.04-2.87,3.83.08,1.15.7,2.2,1.66,2.81,1.01.65,2.41.73,3.54.21.69-.32,1.41-1.09,1.73-1.85.13-.32.29-1.12.29-1.46,0-.91-.43-1.89-1.11-2.56-.86-.85-2.09-1.22-3.25-.99Z"/>
    </g>
  </g>
</svg>